<svg width="50" height="50" viewBox="0 0 50 50" fill="none" xmlns="http://www.w3.org/2000/svg">
<g clip-path="url(#clip0_26_3004)">
<rect width="50" height="50" rx="10" fill="#132322"/>
<g filter="url(#filter0_d_26_3004)">
<path d="M16.9434 34.668C15.1709 34.668 13.7368 36.1182 13.7368 37.8906C13.7368 39.6631 15.1709 41.1133 16.9434 41.1133C18.7158 41.1133 20.166 39.6631 20.166 37.8906C20.166 36.1182 18.7158 34.668 16.9434 34.668ZM7.27539 8.88672V12.1094H10.498L16.2988 24.3394L14.1235 28.2871C13.8657 28.7383 13.7207 29.27 13.7207 29.834C13.7207 31.6064 15.1709 33.0566 16.9434 33.0566H36.2793V29.834H17.6201C17.3945 29.834 17.2173 29.6567 17.2173 29.4312L17.2656 29.2378L18.7158 26.6113H30.7202C31.9287 26.6113 32.9922 25.9507 33.54 24.9517L39.3086 14.4941C39.4375 14.2686 39.502 13.9946 39.502 13.7207C39.502 12.8345 38.7769 12.1094 37.8906 12.1094H14.0591L12.5444 8.88672H7.27539ZM33.0566 34.668C31.2842 34.668 29.8501 36.1182 29.8501 37.8906C29.8501 39.6631 31.2842 41.1133 33.0566 41.1133C34.8291 41.1133 36.2793 39.6631 36.2793 37.8906C36.2793 36.1182 34.8291 34.668 33.0566 34.668Z" fill="url(#paint0_linear_26_3004)"/>
</g>
</g>
<defs>
<filter id="filter0_d_26_3004" x="-1.5625" y="-1.36719" width="53.125" height="53.125" filterUnits="userSpaceOnUse" color-interpolation-filters="sRGB">
<feFlood flood-opacity="0" result="BackgroundImageFix"/>
<feColorMatrix in="SourceAlpha" type="matrix" values="0 0 0 0 0 0 0 0 0 0 0 0 0 0 0 0 0 0 127 0" result="hardAlpha"/>
<feOffset dy="0.195313"/>
<feGaussianBlur stdDeviation="3.61328"/>
<feComposite in2="hardAlpha" operator="out"/>
<feColorMatrix type="matrix" values="0 0 0 0 0 0 0 0 0 0 0 0 0 0 0 0 0 0 0.95 0"/>
<feBlend mode="normal" in2="BackgroundImageFix" result="effect1_dropShadow_26_3004"/>
<feBlend mode="normal" in="SourceGraphic" in2="effect1_dropShadow_26_3004" result="shape"/>
</filter>
<linearGradient id="paint0_linear_26_3004" x1="34.2773" y1="38.4033" x2="9.18959" y2="11.4613" gradientUnits="userSpaceOnUse">
<stop stop-color="#28CE9C"/>
<stop offset="1" stop-color="#6AC9FF"/>
</linearGradient>
<clipPath id="clip0_26_3004">
<rect width="50" height="50" rx="10" fill="white"/>
</clipPath>
</defs>
</svg>
